<svg xmlns="http://www.w3.org/2000/svg" viewBox="0 0 32 32" width="32" height="32" shape-rendering="crispEdges"><title>Prism</title><rect x="15" y="5" width="2" height="1" fill="#d9f3ff"/><rect x="26" y="5" width="1" height="1" fill="#9fdcff"/><rect x="15" y="6" width="2" height="1" fill="#d9f3ff"/><rect x="25" y="6" width="1" height="1" fill="#9fdcff"/><rect x="26" y="6" width="1" height="1" fill="#ffffff"/><rect x="27" y="6" width="1" height="1" fill="#9fdcff"/><rect x="14" y="7" width="1" height="1" fill="#d9f3ff"/><rect x="15" y="7" width="1" height="1" fill="#5fa6f0"/><rect x="16" y="7" width="1" height="1" fill="#ffffff"/><rect x="17" y="7" width="1" height="1" fill="#d9f3ff"/><rect x="26" y="7" width="1" height="1" fill="#9fdcff"/><rect x="14" y="8" width="1" height="1" fill="#d9f3ff"/><rect x="15" y="8" width="1" height="1" fill="#5fa6f0"/><rect x="16" y="8" width="1" height="1" fill="#ffffff"/><rect x="17" y="8" width="1" height="1" fill="#d9f3ff"/><rect x="13" y="9" width="1" height="1" fill="#d9f3ff"/><rect x="14" y="9" width="1" height="1" fill="#5fa6f0"/><rect x="15" y="9" width="1" height="1" fill="#ffffff"/><rect x="16" y="9" width="2" height="1" fill="#5fa6f0"/><rect x="18" y="9" width="1" height="1" fill="#d9f3ff"/><rect x="13" y="10" width="1" height="1" fill="#d9f3ff"/><rect x="14" y="10" width="1" height="1" fill="#5fa6f0"/><rect x="15" y="10" width="1" height="1" fill="#ffffff"/><rect x="16" y="10" width="2" height="1" fill="#5fa6f0"/><rect x="18" y="10" width="1" height="1" fill="#d9f3ff"/><rect x="13" y="11" width="1" height="1" fill="#d9f3ff"/><rect x="14" y="11" width="1" height="1" fill="#ffffff"/><rect x="15" y="11" width="3" height="1" fill="#5fa6f0"/><rect x="18" y="11" width="1" height="1" fill="#d9f3ff"/><rect x="12" y="12" width="1" height="1" fill="#d9f3ff"/><rect x="13" y="12" width="1" height="1" fill="#5fa6f0"/><rect x="14" y="12" width="1" height="1" fill="#ffffff"/><rect x="15" y="12" width="4" height="1" fill="#5fa6f0"/><rect x="19" y="12" width="1" height="1" fill="#d9f3ff"/><rect x="12" y="13" width="1" height="1" fill="#d9f3ff"/><rect x="13" y="13" width="1" height="1" fill="#ffffff"/><rect x="14" y="13" width="4" height="1" fill="#5fa6f0"/><rect x="18" y="13" width="1" height="1" fill="#3f74c9"/><rect x="19" y="13" width="1" height="1" fill="#d9f3ff"/><rect x="11" y="14" width="1" height="1" fill="#d9f3ff"/><rect x="12" y="14" width="1" height="1" fill="#5fa6f0"/><rect x="13" y="14" width="1" height="1" fill="#ffffff"/><rect x="14" y="14" width="3" height="1" fill="#5fa6f0"/><rect x="17" y="14" width="3" height="1" fill="#3f74c9"/><rect x="20" y="14" width="1" height="1" fill="#d9f3ff"/><rect x="21" y="14" width="7" height="1" fill="#ff4d5e"/><rect x="11" y="15" width="1" height="1" fill="#d9f3ff"/><rect x="12" y="15" width="1" height="1" fill="#ffffff"/><rect x="13" y="15" width="3" height="1" fill="#5fa6f0"/><rect x="16" y="15" width="4" height="1" fill="#b3dcff"/><rect x="20" y="15" width="1" height="1" fill="#d9f3ff"/><rect x="21" y="15" width="1" height="1" fill="#ffe14d"/><rect x="22" y="15" width="3" height="1" fill="#ff9f1c"/><rect x="25" y="15" width="7" height="1" fill="#ff4d5e"/><rect x="10" y="16" width="1" height="1" fill="#d9f3ff"/><rect x="11" y="16" width="1" height="1" fill="#5fa6f0"/><rect x="12" y="16" width="4" height="1" fill="#b3dcff"/><rect x="16" y="16" width="5" height="1" fill="#3f74c9"/><rect x="21" y="16" width="1" height="1" fill="#d9f3ff"/><rect x="22" y="16" width="1" height="1" fill="#3ddc84"/><rect x="23" y="16" width="2" height="1" fill="#ffe14d"/><rect x="25" y="16" width="5" height="1" fill="#ff9f1c"/><rect x="30" y="16" width="2" height="1" fill="#ff4d5e"/><rect x="8" y="17" width="2" height="1" fill="#ffffff"/><rect x="10" y="17" width="1" height="1" fill="#d9f3ff"/><rect x="11" y="17" width="1" height="1" fill="#ffffff"/><rect x="12" y="17" width="3" height="1" fill="#5fa6f0"/><rect x="15" y="17" width="6" height="1" fill="#3f74c9"/><rect x="21" y="17" width="1" height="1" fill="#d9f3ff"/><rect x="22" y="17" width="1" height="1" fill="#3aa0ff"/><rect x="23" y="17" width="1" height="1" fill="#3ddc84"/><rect x="24" y="17" width="4" height="1" fill="#ffe14d"/><rect x="28" y="17" width="4" height="1" fill="#ff9f1c"/><rect x="6" y="18" width="2" height="1" fill="#ffffff"/><rect x="8" y="18" width="1" height="1" fill="#b9c6ff"/><rect x="9" y="18" width="1" height="1" fill="#d9f3ff"/><rect x="10" y="18" width="1" height="1" fill="#5fa6f0"/><rect x="11" y="18" width="1" height="1" fill="#ffffff"/><rect x="12" y="18" width="2" height="1" fill="#5fa6f0"/><rect x="14" y="18" width="8" height="1" fill="#3f74c9"/><rect x="22" y="18" width="1" height="1" fill="#d9f3ff"/><rect x="23" y="18" width="1" height="1" fill="#3aa0ff"/><rect x="24" y="18" width="3" height="1" fill="#3ddc84"/><rect x="27" y="18" width="3" height="1" fill="#ffe14d"/><rect x="30" y="18" width="2" height="1" fill="#ff9f1c"/><rect x="4" y="19" width="2" height="1" fill="#ffffff"/><rect x="6" y="19" width="2" height="1" fill="#b9c6ff"/><rect x="9" y="19" width="1" height="1" fill="#d9f3ff"/><rect x="10" y="19" width="4" height="1" fill="#5fa6f0"/><rect x="14" y="19" width="8" height="1" fill="#3f74c9"/><rect x="22" y="19" width="1" height="1" fill="#d9f3ff"/><rect x="23" y="19" width="1" height="1" fill="#9b5cff"/><rect x="24" y="19" width="2" height="1" fill="#3aa0ff"/><rect x="26" y="19" width="2" height="1" fill="#3ddc84"/><rect x="28" y="19" width="4" height="1" fill="#ffe14d"/><rect x="2" y="20" width="2" height="1" fill="#ffffff"/><rect x="4" y="20" width="2" height="1" fill="#b9c6ff"/><rect x="8" y="20" width="1" height="1" fill="#d9f3ff"/><rect x="9" y="20" width="4" height="1" fill="#5fa6f0"/><rect x="13" y="20" width="9" height="1" fill="#3f74c9"/><rect x="22" y="20" width="1" height="1" fill="#2b4a8f"/><rect x="23" y="20" width="1" height="1" fill="#d9f3ff"/><rect x="24" y="20" width="2" height="1" fill="#9b5cff"/><rect x="26" y="20" width="1" height="1" fill="#3aa0ff"/><rect x="27" y="20" width="4" height="1" fill="#3ddc84"/><rect x="31" y="20" width="1" height="1" fill="#ffe14d"/><rect x="0" y="21" width="2" height="1" fill="#ffffff"/><rect x="2" y="21" width="2" height="1" fill="#b9c6ff"/><rect x="8" y="21" width="1" height="1" fill="#d9f3ff"/><rect x="9" y="21" width="3" height="1" fill="#5fa6f0"/><rect x="12" y="21" width="9" height="1" fill="#3f74c9"/><rect x="21" y="21" width="2" height="1" fill="#2b4a8f"/><rect x="23" y="21" width="1" height="1" fill="#d9f3ff"/><rect x="25" y="21" width="2" height="1" fill="#9b5cff"/><rect x="27" y="21" width="2" height="1" fill="#3aa0ff"/><rect x="29" y="21" width="3" height="1" fill="#3ddc84"/><rect x="0" y="22" width="2" height="1" fill="#b9c6ff"/><rect x="8" y="22" width="1" height="1" fill="#d9f3ff"/><rect x="9" y="22" width="2" height="1" fill="#5fa6f0"/><rect x="11" y="22" width="9" height="1" fill="#3f74c9"/><rect x="20" y="22" width="3" height="1" fill="#2b4a8f"/><rect x="23" y="22" width="1" height="1" fill="#d9f3ff"/><rect x="26" y="22" width="2" height="1" fill="#9b5cff"/><rect x="28" y="22" width="3" height="1" fill="#3aa0ff"/><rect x="31" y="22" width="1" height="1" fill="#3ddc84"/><rect x="7" y="23" width="1" height="1" fill="#d9f3ff"/><rect x="8" y="23" width="3" height="1" fill="#5fa6f0"/><rect x="11" y="23" width="9" height="1" fill="#3f74c9"/><rect x="20" y="23" width="4" height="1" fill="#2b4a8f"/><rect x="24" y="23" width="1" height="1" fill="#d9f3ff"/><rect x="27" y="23" width="2" height="1" fill="#9b5cff"/><rect x="29" y="23" width="3" height="1" fill="#3aa0ff"/><rect x="7" y="24" width="1" height="1" fill="#d9f3ff"/><rect x="8" y="24" width="2" height="1" fill="#5fa6f0"/><rect x="10" y="24" width="9" height="1" fill="#3f74c9"/><rect x="19" y="24" width="5" height="1" fill="#2b4a8f"/><rect x="24" y="24" width="1" height="1" fill="#d9f3ff"/><rect x="29" y="24" width="2" height="1" fill="#9b5cff"/><rect x="31" y="24" width="1" height="1" fill="#3aa0ff"/><rect x="6" y="25" width="20" height="1" fill="#d9f3ff"/><rect x="30" y="25" width="2" height="1" fill="#9b5cff"/><rect x="31" y="26" width="1" height="1" fill="#9b5cff"/></svg>
